REM DIRINDEX 1\6,1\2\7,1\2\8,1\2\9,1\3\10,1\3\11,1\4\12,1\4\13,1\4\14,1\5\15,1\5\16,1\5\17
REM DIRNAME folder01,folder02,folder03,folder04,folder05,folder06,folder07,folder08,folder09,folder10,folder11,folder12,folder13,folder14,folder15,folder16,folder17
TITLE ""
FILE "3Q_t2_0739-0754.mp3" MP3
  TRACK 01 AUDIO
    TITLE "7:cjc041_5635"
    INDEX 01 00:00:00
  TRACK 02 AUDIO
    TITLE "0:"
    INDEX 01 00:00:72
  TRACK 03 AUDIO
    TITLE "8:cjc041_5636"
    INDEX 01 00:01:60
  TRACK 04 AUDIO
    TITLE "0:"
    INDEX 01 00:02:69
  TRACK 05 AUDIO
    TITLE "9:cjc041_5637"
    INDEX 01 00:03:51
  TRACK 06 AUDIO
    TITLE "0:"
    INDEX 01 00:04:50
  TRACK 07 AUDIO
    TITLE "7:cjc041_5638"
    INDEX 01 00:06:35
  TRACK 08 AUDIO
    TITLE "0:"
    INDEX 01 00:07:49
  TRACK 09 AUDIO
    TITLE "8:cjc041_5639"
    INDEX 01 00:08:28
  TRACK 10 AUDIO
    TITLE "0:"
    INDEX 01 00:09:22
  TRACK 11 AUDIO
    TITLE "9:cjc041_5640"
    INDEX 01 00:10:04
  TRACK 12 AUDIO
    TITLE "0:"
    INDEX 01 00:11:21
  TRACK 13 AUDIO
    TITLE "7:cjc041_5641"
    INDEX 01 00:13:02
  TRACK 14 AUDIO
    TITLE "0:"
    INDEX 01 00:14:17
  TRACK 15 AUDIO
    TITLE "8:cjc041_5642"
    INDEX 01 00:14:68
  TRACK 16 AUDIO
    TITLE "0:"
    INDEX 01 00:15:66
  TRACK 17 AUDIO
    TITLE "9:cjc041_5643"
    INDEX 01 00:16:44
  TRACK 18 AUDIO
    TITLE "0:"
    INDEX 01 00:17:59
  TRACK 19 AUDIO
    TITLE "7:cjc041_5644"
    INDEX 01 00:19:40
  TRACK 20 AUDIO
    TITLE "0:"
    INDEX 01 00:20:51
  TRACK 21 AUDIO
    TITLE "8:cjc041_5645"
    INDEX 01 00:21:21
  TRACK 22 AUDIO
    TITLE "0:"
    INDEX 01 00:22:30
  TRACK 23 AUDIO
    TITLE "9:cjc041_5646"
    INDEX 01 00:23:08
  TRACK 24 AUDIO
    TITLE "0:"
    INDEX 01 00:24:20
  TRACK 25 AUDIO
    TITLE "7:cjc041_5647"
    INDEX 01 00:25:74
  TRACK 26 AUDIO
    TITLE "0:"
    INDEX 01 00:27:08
  TRACK 27 AUDIO
    TITLE "8:cjc041_5648"
    INDEX 01 00:27:55
  TRACK 28 AUDIO
    TITLE "0:"
    INDEX 01 00:29:03
  TRACK 29 AUDIO
    TITLE "9:cjc041_5649"
    INDEX 01 00:29:54
  TRACK 30 AUDIO
    TITLE "0:"
    INDEX 01 00:30:63
  TRACK 31 AUDIO
    TITLE "7:cjc041_5650"
    INDEX 01 00:32:41
  TRACK 32 AUDIO
    TITLE "0:"
    INDEX 01 00:34:06
  TRACK 33 AUDIO
    TITLE "8:cjc041_5651"
    INDEX 01 00:34:57
  TRACK 34 AUDIO
    TITLE "0:"
    INDEX 01 00:36:27
  TRACK 35 AUDIO
    TITLE "9:cjc041_5652"
    INDEX 01 00:37:03
  TRACK 36 AUDIO
    TITLE "0:"
    INDEX 01 00:38:47
  TRACK 37 AUDIO
    TITLE "7:cjc041_5653"
    INDEX 01 00:40:30
  TRACK 38 AUDIO
    TITLE "0:"
    INDEX 01 00:41:51
  TRACK 39 AUDIO
    TITLE "8:cjc041_5654"
    INDEX 01 00:42:27
  TRACK 40 AUDIO
    TITLE "0:"
    INDEX 01 00:44:38
  TRACK 41 AUDIO
    TITLE "9:cjc041_5655"
    INDEX 01 00:45:18
  TRACK 42 AUDIO
    TITLE "0:"
    INDEX 01 00:46:39
  TRACK 43 AUDIO
    TITLE "7:cjc041_5656"
    INDEX 01 00:48:16
  TRACK 44 AUDIO
    TITLE "0:"
    INDEX 01 00:49:35
  TRACK 45 AUDIO
    TITLE "8:cjc041_5657"
    INDEX 01 00:50:11
  TRACK 46 AUDIO
    TITLE "0:"
    INDEX 01 00:51:11
  TRACK 47 AUDIO
    TITLE "9:cjc041_5658"
    INDEX 01 00:51:67
  TRACK 48 AUDIO
    TITLE "0:"
    INDEX 01 00:53:13
  TRACK 49 AUDIO
    TITLE "7:cjc041_5659"
    INDEX 01 00:54:64
  TRACK 50 AUDIO
    TITLE "0:"
    INDEX 01 00:55:71
  TRACK 51 AUDIO
    TITLE "8:cjc041_5660"
    INDEX 01 00:56:47
  TRACK 52 AUDIO
    TITLE "0:"
    INDEX 01 00:58:52
  TRACK 53 AUDIO
    TITLE "9:cjc041_5661"
    INDEX 01 00:59:26
  TRACK 54 AUDIO
    TITLE "0:"
    INDEX 01 01:00:33
  TRACK 55 AUDIO
    TITLE "7:cjc041_5662"
    INDEX 01 01:02:18
  TRACK 56 AUDIO
    TITLE "0:"
    INDEX 01 01:03:33
  TRACK 57 AUDIO
    TITLE "8:cjc041_5663"
    INDEX 01 01:04:13
  TRACK 58 AUDIO
    TITLE "0:"
    INDEX 01 01:05:24
  TRACK 59 AUDIO
    TITLE "9:cjc041_5664"
    INDEX 01 01:06:02
  TRACK 60 AUDIO
    TITLE "0:"
    INDEX 01 01:07:19
  TRACK 61 AUDIO
    TITLE "7:cjc041_5665"
    INDEX 01 01:08:72
  TRACK 62 AUDIO
    TITLE "0:"
    INDEX 01 01:10:31
  TRACK 63 AUDIO
    TITLE "8:cjc041_5666"
    INDEX 01 01:11:05
  TRACK 64 AUDIO
    TITLE "0:"
    INDEX 01 01:12:15
  TRACK 65 AUDIO
    TITLE "9:cjc041_5667"
    INDEX 01 01:12:70
  TRACK 66 AUDIO
    TITLE "0:"
    INDEX 01 01:14:25
  TRACK 67 AUDIO
    TITLE "7:cjc041_5668"
    INDEX 01 01:16:07
  TRACK 68 AUDIO
    TITLE "0:"
    INDEX 01 01:17:26
  TRACK 69 AUDIO
    TITLE "8:cjc041_5669"
    INDEX 01 01:17:73
  TRACK 70 AUDIO
    TITLE "0:"
    INDEX 01 01:19:01
  TRACK 71 AUDIO
    TITLE "9:cjc041_5670"
    INDEX 01 01:19:52
  TRACK 72 AUDIO
    TITLE "0:"
    INDEX 01 01:20:71
  TRACK 73 AUDIO
    TITLE "7:cjc041_5671"
    INDEX 01 01:22:48
  TRACK 74 AUDIO
    TITLE "0:"
    INDEX 01 01:23:71
  TRACK 75 AUDIO
    TITLE "8:cjc041_5672"
    INDEX 01 01:24:49
  TRACK 76 AUDIO
    TITLE "0:"
    INDEX 01 01:26:05
  TRACK 77 AUDIO
    TITLE "9:cjc041_5673"
    INDEX 01 01:26:54
  TRACK 78 AUDIO
    TITLE "0:"
    INDEX 01 01:28:00
  TRACK 79 AUDIO
    TITLE "7:cjc041_5674"
    INDEX 01 01:29:56
  TRACK 80 AUDIO
    TITLE "0:"
    INDEX 01 01:30:60
  TRACK 81 AUDIO
    TITLE "8:cjc041_5675"
    INDEX 01 01:31:38
  TRACK 82 AUDIO
    TITLE "0:"
    INDEX 01 01:32:33
  TRACK 83 AUDIO
    TITLE "9:cjc041_5676"
    INDEX 01 01:33:11
  TRACK 84 AUDIO
    TITLE "0:"
    INDEX 01 01:34:16
  TRACK 85 AUDIO
    TITLE "7:cjc041_5677"
    INDEX 01 01:36:00
  TRACK 86 AUDIO
    TITLE "0:"
    INDEX 01 01:37:13
  TRACK 87 AUDIO
    TITLE "8:cjc041_5678"
    INDEX 01 01:37:66
  TRACK 88 AUDIO
    TITLE "0:"
    INDEX 01 01:39:10
  TRACK 89 AUDIO
    TITLE "9:cjc041_5679"
    INDEX 01 01:39:61
  TRACK 90 AUDIO
    TITLE "0:"
    INDEX 01 01:40:74
  TRACK 91 AUDIO
    TITLE "7:cjc041_5680"
    INDEX 01 01:42:51
  TRACK 92 AUDIO
    TITLE "0:"
    INDEX 01 01:44:19
  TRACK 93 AUDIO
    TITLE "8:cjc041_5681"
    INDEX 01 01:44:70
  TRACK 94 AUDIO
    TITLE "0:"
    INDEX 01 01:45:65
  TRACK 95 AUDIO
    TITLE "9:cjc041_5682"
    INDEX 01 01:46:37
  TRACK 96 AUDIO
    TITLE "0:"
    INDEX 01 01:48:05
